<svg width="1440" preserveAspectRatio="none" height="122" viewBox="0 0 1440 122" fill="none"
    xmlns="http://www.w3.org/2000/svg">
    <rect x="60" y="1" width="60" height="120" fill="white"/>
    <path d="M89.5767 55.2V69H91.9767V52.2H90.2967L86.3367 54.456V56.832L89.5767 55.2Z" fill="#868F9F"/>
    <rect x="60" y="1" width="60" height="120" stroke="#DADFE6"/>
    <path d="M1 9C1 4.58172 4.58172 1 9 1H61V121H9C4.58172 121 1 117.418 1 113V9Z" fill="white"/>
    <path d="M34.8619 60.6C34.8619 63.96 34.1419 66.96 31.5019 66.96C28.8619 66.96 28.1419 63.96 28.1419 60.6C28.1419 57.24 28.8619 54.24 31.5019 54.24C34.1419 54.24 34.8619 57.24 34.8619 60.6ZM25.7419 60.6C25.7419 65.376 27.3019 69.24 31.5019 69.24C35.7019 69.24 37.2619 65.376 37.2619 60.6C37.2619 55.824 35.7019 51.96 31.5019 51.96C27.3019 51.96 25.7419 55.824 25.7419 60.6Z" fill="#868F9F"/>
    <path d="M1 9C1 4.58172 4.58172 1 9 1H61V121H9C4.58172 121 1 117.418 1 113V9Z" stroke="#DADFE6"/>
    <rect x="120" y="1" width="60" height="120" fill="white"/>
    <path d="M147.266 56.472C147.698 55.176 148.61 54.24 150.122 54.24C151.706 54.24 152.786 55.584 152.786 57.024C152.786 58.44 152.162 59.376 150.842 60.888L145.106 67.44V69H155.186V66.72H148.778L153.002 61.944C154.226 60.552 155.186 58.968 155.186 57.024C155.186 54.264 153.002 51.96 150.074 51.96C148.586 51.96 146.018 52.608 145.13 55.776L147.266 56.472Z" fill="#868F9F"/>
    <rect x="120" y="1" width="60" height="120" stroke="#DADFE6"/>
    <rect x="180" y="1" width="60" height="120" fill="white"/>
    <path d="M204.62 66.36C205.604 68.232 207.62 69.24 209.924 69.24C213.044 69.24 215.66 66.792 215.66 63.48C215.66 60.672 213.668 58.392 211.124 58.008L214.82 53.76V52.2H205.46V54.48H211.268L207.692 58.704V60.264C207.956 60.192 208.7 60 209.636 60C211.748 60 213.26 61.464 213.26 63.48C213.26 65.496 211.676 66.96 209.78 66.96C208.388 66.96 207.164 66.264 206.612 65.208L204.62 66.36Z" fill="#868F9F"/>
    <rect x="180" y="1" width="60" height="120" stroke="#DADFE6"/>
    <rect x="240" y="1" width="60" height="120" fill="white"/>
    <path d="M263.575 64.92H271.495V69H273.895V64.92H276.535V62.64H273.895V52.2H272.215L263.575 63.36V64.92ZM266.983 62.64L271.495 56.976V62.64H266.983Z" fill="#868F9F"/>
    <rect x="240" y="1" width="60" height="120" stroke="#DADFE6"/>
    <rect x="300" y="1" width="60" height="120" fill="white"/>
    <path d="M334.106 54.48V52.2H326.234L325.034 60.72L326.69 60.96C327.314 60.384 328.226 60 329.234 60C331.298 60 332.642 61.584 332.642 63.48C332.642 65.376 331.322 66.96 329.306 66.96C327.962 66.96 326.834 66.264 326.186 65.424L324.362 66.84C325.394 68.304 327.218 69.24 329.282 69.24C332.594 69.24 335.042 66.624 335.042 63.48C335.042 60.336 332.594 57.72 329.306 57.72C328.754 57.72 328.226 57.84 327.722 58.008L328.202 54.48H334.106Z" fill="#868F9F"/>
    <rect x="300" y="1" width="60" height="120" stroke="#DADFE6"/>
    <rect x="360" y="1" width="60" height="120" fill="white"/>
    <path d="M388.016 60.888C388.616 60.312 389.576 60 390.656 60C392.624 60 394.04 61.632 394.04 63.528C394.04 65.4 392.624 66.96 390.608 66.96C388.664 66.96 387.176 65.472 387.176 63.48C387.176 62.52 387.44 61.776 388.016 60.888ZM393.632 52.2H390.92L386.936 58.248C386.264 59.256 385.688 60.216 385.352 60.984C384.92 61.968 384.8 62.76 384.8 63.552C384.8 66.696 387.224 69.24 390.608 69.24C393.968 69.24 396.44 66.696 396.44 63.48C396.44 60.24 393.944 57.792 390.872 57.792C390.584 57.792 390.272 57.792 389.96 57.84L393.632 52.2Z" fill="#868F9F"/>
    <rect x="360" y="1" width="60" height="120" stroke="#DADFE6"/>
    <rect x="420" y="1" width="60" height="120" fill="white"/>
    <path d="M448.394 69L455.906 53.76V52.2H445.346V54.48H453.026L445.826 69H448.394Z" fill="#868F9F"/>
    <rect x="420" y="1" width="60" height="120" stroke="#DADFE6"/>
    <rect x="480" y="1" width="60" height="120" fill="white"/>
    <path d="M509.999 69.24C513.239 69.24 515.759 66.864 515.759 63.912C515.759 61.992 514.631 60.336 513.095 59.52C514.031 58.896 514.679 57.624 514.679 56.4C514.679 53.952 512.663 51.96 509.999 51.96C507.335 51.96 505.319 53.952 505.319 56.4C505.319 57.624 505.967 58.896 506.903 59.52C505.367 60.336 504.239 61.992 504.239 63.912C504.239 66.864 506.759 69.24 509.999 69.24ZM509.999 60.84C511.919 60.84 513.359 62.208 513.359 63.912C513.359 65.616 511.919 66.96 509.999 66.96C508.079 66.96 506.639 65.616 506.639 63.912C506.639 62.208 508.079 60.84 509.999 60.84ZM509.999 54.24C511.319 54.24 512.279 55.2 512.279 56.4C512.279 57.6 511.319 58.56 509.999 58.56C508.679 58.56 507.719 57.6 507.719 56.4C507.719 55.2 508.679 54.24 509.999 54.24Z" fill="#868F9F"/>
    <rect x="480" y="1" width="60" height="120" stroke="#DADFE6"/>
    <rect x="540" y="1" width="59" height="120" fill="white"/>
    <path d="M571.984 60.312C571.384 60.888 570.424 61.2 569.344 61.2C567.376 61.2 565.96 59.568 565.96 57.672C565.96 55.8 567.376 54.24 569.392 54.24C571.336 54.24 572.824 55.728 572.824 57.72C572.824 58.68 572.56 59.424 571.984 60.312ZM566.368 69H569.08L573.064 62.952C573.736 61.944 574.312 60.984 574.648 60.216C575.08 59.232 575.2 58.44 575.2 57.648C575.2 54.504 572.776 51.96 569.392 51.96C566.032 51.96 563.56 54.504 563.56 57.72C563.56 60.96 566.056 63.408 569.128 63.408C569.416 63.408 569.728 63.408 570.04 63.36L566.368 69Z" fill="#868F9F"/>
    <rect x="540" y="1" width="59" height="120" stroke="#DADFE6"/>
    <rect x="599" y="1" width="60" height="120" fill="white"/>
    <path d="M621.499 55.2V69H623.899V52.2H622.219L618.259 54.456V56.832L621.499 55.2ZM637.225 60.6C637.225 63.96 636.505 66.96 633.865 66.96C631.225 66.96 630.505 63.96 630.505 60.6C630.505 57.24 631.225 54.24 633.865 54.24C636.505 54.24 637.225 57.24 637.225 60.6ZM628.105 60.6C628.105 65.376 629.665 69.24 633.865 69.24C638.065 69.24 639.625 65.376 639.625 60.6C639.625 55.824 638.065 51.96 633.865 51.96C629.665 51.96 628.105 55.824 628.105 60.6Z" fill="#868F9F"/>
    <rect x="599" y="1" width="60" height="120" stroke="#DADFE6"/>
    <rect x="659" y="1" width="60" height="120" fill="white"/>
    <path d="M683.909 55.2V69H686.309V52.2H684.629L680.669 54.456V56.832L683.909 55.2ZM694.245 55.2V69H696.645V52.2H694.965L691.005 54.456V56.832L694.245 55.2Z" fill="#868F9F"/>
    <rect x="659" y="1" width="60" height="120" stroke="#DADFE6"/>
    <rect x="719" y="1" width="60" height="120" fill="white"/>
    <path d="M742.842 55.2V69H745.242V52.2H743.562L739.602 54.456V56.832L742.842 55.2ZM751.129 56.472C751.561 55.176 752.473 54.24 753.985 54.24C755.569 54.24 756.649 55.584 756.649 57.024C756.649 58.44 756.025 59.376 754.705 60.888L748.969 67.44V69H759.049V66.72H752.641L756.865 61.944C758.089 60.552 759.049 58.968 759.049 57.024C759.049 54.264 756.865 51.96 753.937 51.96C752.449 51.96 749.881 52.608 748.993 55.776L751.129 56.472Z" fill="#868F9F"/>
    <rect x="719" y="1" width="60" height="120" stroke="#DADFE6"/>
    <rect x="779" y="1" width="60" height="120" fill="white"/>
    <path d="M802.596 55.2V69H804.996V52.2H803.316L799.356 54.456V56.832L802.596 55.2ZM808.483 66.36C809.467 68.232 811.483 69.24 813.787 69.24C816.907 69.24 819.523 66.792 819.523 63.48C819.523 60.672 817.531 58.392 814.987 58.008L818.683 53.76V52.2H809.323V54.48H815.131L811.555 58.704V60.264C811.819 60.192 812.563 60 813.499 60C815.611 60 817.123 61.464 817.123 63.48C817.123 65.496 815.539 66.96 813.643 66.96C812.251 66.96 811.027 66.264 810.475 65.208L808.483 66.36Z" fill="#868F9F"/>
    <rect x="779" y="1" width="60" height="120" stroke="#DADFE6"/>
    <rect x="839" y="1" width="60" height="120" fill="white"/>
    <path d="M861.792 55.2V69H864.192V52.2H862.512L858.552 54.456V56.832L861.792 55.2ZM867.438 64.92H875.358V69H877.758V64.92H880.398V62.64H877.758V52.2H876.078L867.438 63.36V64.92ZM870.846 62.64L875.358 56.976V62.64H870.846Z" fill="#868F9F"/>
    <rect x="839" y="1" width="60" height="120" stroke="#DADFE6"/>
    <rect x="899" y="1" width="60" height="120" fill="white"/>
    <path d="M922.479 55.2V69H924.879V52.2H923.199L919.239 54.456V56.832L922.479 55.2ZM938.47 54.48V52.2H930.598L929.398 60.72L931.054 60.96C931.678 60.384 932.59 60 933.598 60C935.662 60 937.006 61.584 937.006 63.48C937.006 65.376 935.686 66.96 933.67 66.96C932.326 66.96 931.198 66.264 930.55 65.424L928.726 66.84C929.758 68.304 931.582 69.24 933.646 69.24C936.958 69.24 939.406 66.624 939.406 63.48C939.406 60.336 936.958 57.72 933.67 57.72C933.118 57.72 932.59 57.84 932.086 58.008L932.566 54.48H938.47Z" fill="#868F9F"/>
    <rect x="899" y="1" width="60" height="120" stroke="#DADFE6"/>
    <rect x="959" y="1" width="60" height="120" fill="white"/>
    <path d="M981.557 55.2V69H983.957V52.2H982.277L978.317 54.456V56.832L981.557 55.2ZM991.38 60.888C991.98 60.312 992.94 60 994.02 60C995.988 60 997.404 61.632 997.404 63.528C997.404 65.4 995.988 66.96 993.972 66.96C992.028 66.96 990.54 65.472 990.54 63.48C990.54 62.52 990.804 61.776 991.38 60.888ZM996.996 52.2H994.284L990.3 58.248C989.628 59.256 989.052 60.216 988.716 60.984C988.284 61.968 988.164 62.76 988.164 63.552C988.164 66.696 990.588 69.24 993.972 69.24C997.332 69.24 999.804 66.696 999.804 63.48C999.804 60.24 997.308 57.792 994.236 57.792C993.948 57.792 993.636 57.792 993.324 57.84L996.996 52.2Z" fill="#868F9F"/>
    <rect x="959" y="1" width="60" height="120" stroke="#DADFE6"/>
    <rect x="1019" y="1" width="60" height="120" fill="white"/>
    <path d="M1042.84 55.2V69H1045.24V52.2H1043.56L1039.6 54.456V56.832L1042.84 55.2ZM1052.26 69L1059.77 53.76V52.2H1049.21V54.48H1056.89L1049.69 69H1052.26Z" fill="#868F9F"/>
    <rect x="1019" y="1" width="60" height="120" stroke="#DADFE6"/>
    <rect x="1079" y="1" width="60" height="120" fill="white"/>
    <path d="M1101.62 55.2V69H1104.02V52.2H1102.34L1098.38 54.456V56.832L1101.62 55.2ZM1113.86 69.24C1117.1 69.24 1119.62 66.864 1119.62 63.912C1119.62 61.992 1118.49 60.336 1116.96 59.52C1117.89 58.896 1118.54 57.624 1118.54 56.4C1118.54 53.952 1116.53 51.96 1113.86 51.96C1111.2 51.96 1109.18 53.952 1109.18 56.4C1109.18 57.624 1109.83 58.896 1110.77 59.52C1109.23 60.336 1108.1 61.992 1108.1 63.912C1108.1 66.864 1110.62 69.24 1113.86 69.24ZM1113.86 60.84C1115.78 60.84 1117.22 62.208 1117.22 63.912C1117.22 65.616 1115.78 66.96 1113.86 66.96C1111.94 66.96 1110.5 65.616 1110.5 63.912C1110.5 62.208 1111.94 60.84 1113.86 60.84ZM1113.86 54.24C1115.18 54.24 1116.14 55.2 1116.14 56.4C1116.14 57.6 1115.18 58.56 1113.86 58.56C1112.54 58.56 1111.58 57.6 1111.58 56.4C1111.58 55.2 1112.54 54.24 1113.86 54.24Z" fill="#868F9F"/>
    <rect x="1079" y="1" width="60" height="120" stroke="#DADFE6"/>
    <rect x="1139" y="1" width="60" height="120" fill="white"/>
    <path d="M1161.56 55.2V69H1163.96V52.2H1162.28L1158.32 54.456V56.832L1161.56 55.2ZM1176.35 60.312C1175.75 60.888 1174.79 61.2 1173.71 61.2C1171.74 61.2 1170.32 59.568 1170.32 57.672C1170.32 55.8 1171.74 54.24 1173.76 54.24C1175.7 54.24 1177.19 55.728 1177.19 57.72C1177.19 58.68 1176.92 59.424 1176.35 60.312ZM1170.73 69H1173.44L1177.43 62.952C1178.1 61.944 1178.68 60.984 1179.01 60.216C1179.44 59.232 1179.56 58.44 1179.56 57.648C1179.56 54.504 1177.14 51.96 1173.76 51.96C1170.4 51.96 1167.92 54.504 1167.92 57.72C1167.92 60.96 1170.42 63.408 1173.49 63.408C1173.78 63.408 1174.09 63.408 1174.4 63.36L1170.73 69Z" fill="#868F9F"/>
    <rect x="1139" y="1" width="60" height="120" stroke="#DADFE6"/>
    <rect x="1199" y="1" width="60" height="120" fill="white"/>
    <path d="M1219.19 56.472C1219.62 55.176 1220.53 54.24 1222.04 54.24C1223.63 54.24 1224.71 55.584 1224.71 57.024C1224.71 58.44 1224.08 59.376 1222.76 60.888L1217.03 67.44V69H1227.11V66.72H1220.7L1224.92 61.944C1226.15 60.552 1227.11 58.968 1227.11 57.024C1227.11 54.264 1224.92 51.96 1222 51.96C1220.51 51.96 1217.94 52.608 1217.05 55.776L1219.19 56.472ZM1239.1 60.6C1239.1 63.96 1238.38 66.96 1235.74 66.96C1233.1 66.96 1232.38 63.96 1232.38 60.6C1232.38 57.24 1233.1 54.24 1235.74 54.24C1238.38 54.24 1239.1 57.24 1239.1 60.6ZM1229.98 60.6C1229.98 65.376 1231.54 69.24 1235.74 69.24C1239.94 69.24 1241.5 65.376 1241.5 60.6C1241.5 55.824 1239.94 51.96 1235.74 51.96C1231.54 51.96 1229.98 55.824 1229.98 60.6Z" fill="#868F9F"/>
    <rect x="1199" y="1" width="60" height="120" stroke="#DADFE6"/>
    <rect x="1259" y="1" width="60" height="120" fill="white"/>
    <path d="M1281.4 56.472C1281.83 55.176 1282.75 54.24 1284.26 54.24C1285.84 54.24 1286.92 55.584 1286.92 57.024C1286.92 58.44 1286.3 59.376 1284.98 60.888L1279.24 67.44V69H1289.32V66.72H1282.91L1287.14 61.944C1288.36 60.552 1289.32 58.968 1289.32 57.024C1289.32 54.264 1287.14 51.96 1284.21 51.96C1282.72 51.96 1280.15 52.608 1279.27 55.776L1281.4 56.472ZM1295.31 55.2V69H1297.71V52.2H1296.03L1292.07 54.456V56.832L1295.31 55.2Z" fill="#868F9F"/>
    <rect x="1259" y="1" width="60" height="120" stroke="#DADFE6"/>
    <rect x="1319" y="1" width="60" height="120" fill="white"/>
    <path d="M1340.03 56.472C1340.46 55.176 1341.38 54.24 1342.89 54.24C1344.47 54.24 1345.55 55.584 1345.55 57.024C1345.55 58.44 1344.93 59.376 1343.61 60.888L1337.87 67.44V69H1347.95V66.72H1341.54L1345.77 61.944C1346.99 60.552 1347.95 58.968 1347.95 57.024C1347.95 54.264 1345.77 51.96 1342.84 51.96C1341.35 51.96 1338.78 52.608 1337.9 55.776L1340.03 56.472ZM1352.5 56.472C1352.93 55.176 1353.84 54.24 1355.36 54.24C1356.94 54.24 1358.02 55.584 1358.02 57.024C1358.02 58.44 1357.4 59.376 1356.08 60.888L1350.34 67.44V69H1360.42V66.72H1354.01L1358.24 61.944C1359.46 60.552 1360.42 58.968 1360.42 57.024C1360.42 54.264 1358.24 51.96 1355.31 51.96C1353.82 51.96 1351.25 52.608 1350.36 55.776L1352.5 56.472Z" fill="#868F9F"/>
    <rect x="1319" y="1" width="60" height="120" stroke="#DADFE6"/>
    <path d="M1379 1H1431C1435.42 1 1439 4.58172 1439 9V113C1439 117.418 1435.42 121 1431 121H1379V1Z" fill="white"/>
    <path d="M1399.29 56.472C1399.72 55.176 1400.63 54.24 1402.14 54.24C1403.73 54.24 1404.81 55.584 1404.81 57.024C1404.81 58.44 1404.18 59.376 1402.86 60.888L1397.13 67.44V69H1407.21V66.72H1400.8L1405.02 61.944C1406.25 60.552 1407.21 58.968 1407.21 57.024C1407.21 54.264 1405.02 51.96 1402.09 51.96C1400.61 51.96 1398.04 52.608 1397.15 55.776L1399.29 56.472ZM1409.35 66.36C1410.34 68.232 1412.35 69.24 1414.66 69.24C1417.78 69.24 1420.39 66.792 1420.39 63.48C1420.39 60.672 1418.4 58.392 1415.86 58.008L1419.55 53.76V52.2H1410.19V54.48H1416L1412.43 58.704V60.264C1412.69 60.192 1413.43 60 1414.37 60C1416.48 60 1417.99 61.464 1417.99 63.48C1417.99 65.496 1416.41 66.96 1414.51 66.96C1413.12 66.96 1411.9 66.264 1411.35 65.208L1409.35 66.36Z" fill="#868F9F"/>
    <path d="M1379 1H1431C1435.42 1 1439 4.58172 1439 9V113C1439 117.418 1435.42 121 1431 121H1379V1Z" stroke="#DADFE6"/>
</svg>
