<?xml version="1.0" standalone="no"?><!DOCTYPE svg PUBLIC "-//W3C//DTD SVG 1.1//EN" "http://www.w3.org/Graphics/SVG/1.1/DTD/svg11.dtd"><svg t="1615104421042" class="icon" viewBox="0 0 1024 1024" version="1.1" xmlns="http://www.w3.org/2000/svg" p-id="7929" xmlns:xlink="http://www.w3.org/1999/xlink" width="200" height="200"><defs><style type="text/css"></style></defs><path d="M777.856 96A150.144 150.144 0 0 1 928 246.144v531.712a150.144 150.144 0 0 1-150.144 150.144H246.144A150.208 150.208 0 0 1 96 777.856V246.144A150.208 150.208 0 0 1 246.144 96z m-53.504 426.112l-219.2 219.264a32 32 0 0 1-35.456 6.72l-4.928-2.688-155.52-103.616-148.416 148.352A86.208 86.208 0 0 0 246.144 864h531.712c47.552 0 86.144-38.592 86.144-86.144V599.744l-139.648-77.632z m53.504-362.112H246.144c-47.552 0-86.144 38.592-86.144 86.144v454.4l122.56-122.56a32 32 0 0 1 35.456-6.656l4.928 2.688 155.456 103.552 217.728-217.728a32 32 0 0 1 32.64-7.744l5.568 2.432L864 526.528V246.144c0-44.8-34.176-81.6-77.888-85.76l-8.32-0.384z m-443.072 54.144a120.64 120.64 0 1 1-0.064 241.28 120.64 120.64 0 0 1 0.064-241.28z m0 64a56.64 56.64 0 1 0 0 113.28 56.64 56.64 0 0 0 0-113.28z" p-id="7930" fill="#2c2c2c"></path></svg>