<?xml version="1.0" standalone="no"?><!DOCTYPE svg PUBLIC "-//W3C//DTD SVG 1.1//EN" "http://www.w3.org/Graphics/SVG/1.1/DTD/svg11.dtd"><svg t="1615104054993" class="icon" viewBox="0 0 1024 1024" version="1.1" xmlns="http://www.w3.org/2000/svg" p-id="889" xmlns:xlink="http://www.w3.org/1999/xlink" width="200" height="200"><defs><style type="text/css"></style></defs><path d="M437.333333 234.666667c90.133333 0 170.581333 41.386667 223.402667 106.24a287.530667 287.530667 0 0 1 48.384 86.250666C849.024 435.264 960 551.338667 960 693.333333c0 143.701333-113.664 260.842667-256 266.453334V960H277.333333C159.509333 960 64 864.490667 64 746.666667a213.056 213.056 0 0 1 89.685333-173.866667A289.536 289.536 0 0 1 149.333333 522.666667C149.333333 363.605333 278.272 234.666667 437.333333 234.666667z m7.04 64.106666L437.333333 298.666667C313.621333 298.666667 213.333333 398.954667 213.333333 522.666667c0 10.581333 0.725333 21.056 2.176 31.36l1.216 7.68 6.976 39.786666-32.874666 23.424a149.333333 149.333333 0 0 0 81.386666 270.997334L277.333333 896h419.818667l4.352-0.170667c106.474667-4.181333 191.424-90.453333 194.410667-196.693333L896 693.333333c0-105.536-80.938667-192.917333-184.896-201.877333l-5.696-0.426667-42.538667-2.453333-14.144-40.213333a223.530667 223.530667 0 0 0-37.610666-67.050667 223.36 223.36 0 0 0-166.741334-82.538667z" fill="#262626" p-id="890"></path><path d="M662.997333 186.368a32 32 0 0 1 44.074667-10.304 736.853333 736.853333 0 0 1 164.48 139.221333 32 32 0 1 1-48 42.282667 672.853333 672.853333 0 0 0-150.229333-127.146667 32 32 0 0 1-10.325334-44.053333z" fill="#262626" p-id="891"></path></svg>