<svg width="44" height="44" viewBox="0 0 44 44" fill="none" xmlns="http://www.w3.org/2000/svg">
<path d="M16 20.9999H28V11.1569L22 5.70292L16 11.1569V20.9999ZM29 22.9999H15C14.7348 22.9999 14.4804 22.8946 14.2929 22.707C14.1054 22.5195 14 22.2651 14 21.9999V12.9999H11L21.327 3.61192C21.5111 3.4444 21.7511 3.35156 22 3.35156C22.2489 3.35156 22.4889 3.4444 22.673 3.61192L33 12.9999H30V21.9999C30 22.2651 29.8946 22.5195 29.7071 22.707C29.5196 22.8946 29.2652 22.9999 29 22.9999ZM17.5 14.9999H19.5C19.5 15.663 19.7634 16.2988 20.2322 16.7677C20.7011 17.2365 21.337 17.4999 22 17.4999C22.663 17.4999 23.2989 17.2365 23.7678 16.7677C24.2366 16.2988 24.5 15.663 24.5 14.9999H26.5C26.5 16.1934 26.0259 17.338 25.182 18.1819C24.3381 19.0258 23.1935 19.4999 22 19.4999C20.8065 19.4999 19.6619 19.0258 18.818 18.1819C17.9741 17.338 17.5 16.1934 17.5 14.9999Z" fill="#3A4763"/>
<path d="M16.96 31.54H18.568V32.824C18.568 34.012 18.808 34.516 19.996 34.516H20.764C21.016 34.516 21.316 34.504 21.508 34.42C21.448 34.096 21.424 33.604 21.4 33.244C21.232 33.292 20.932 33.328 20.74 33.328H20.116C19.948 33.328 19.924 33.184 19.924 32.836V30.22H15.628V31.516C15.628 32.344 15.448 33.208 13.936 33.856C14.2 34.048 14.716 34.612 14.884 34.888C16.588 34.096 16.96 32.752 16.96 31.564V31.54ZM14.068 31.804C13.672 31.288 12.784 30.508 12.148 29.98L11.236 30.856C11.872 31.42 12.712 32.26 13.096 32.788L14.068 31.804ZM13.252 38.068V33.52H10.444V34.888H11.872V38.488C11.872 39.064 11.536 39.472 11.272 39.664C11.512 39.94 11.884 40.528 11.992 40.876C12.208 40.588 12.604 40.252 14.824 38.368C14.644 38.116 14.404 37.576 14.284 37.192L13.252 38.068ZM19.144 36.352C18.784 37.024 18.304 37.6 17.74 38.08C17.128 37.588 16.624 37 16.276 36.352H19.144ZM20.092 34.96L19.852 35.02H14.572V36.352H15.436L14.944 36.52C15.376 37.408 15.94 38.176 16.6 38.836C15.772 39.292 14.812 39.592 13.768 39.784C13.996 40.084 14.284 40.648 14.416 41.02C15.628 40.732 16.744 40.324 17.704 39.736C18.58 40.336 19.612 40.768 20.8 41.056C20.98 40.66 21.364 40.096 21.676 39.784C20.62 39.58 19.696 39.268 18.892 38.836C19.816 37.972 20.524 36.832 20.956 35.344L20.092 34.96ZM29.98 39.82C29.38 39.82 29.284 39.748 29.284 39.244V36.4L29.98 36.076V38.86H31.168V35.512L31.924 35.152C31.912 36.304 31.912 36.952 31.888 37.072C31.876 37.228 31.816 37.252 31.732 37.252C31.636 37.252 31.468 37.252 31.324 37.24C31.456 37.504 31.552 37.948 31.588 38.284C31.888 38.284 32.284 38.272 32.572 38.14C32.896 38.008 33.052 37.756 33.076 37.324C33.112 36.952 33.112 35.728 33.124 34.024L33.172 33.832L32.296 33.52L32.068 33.676L32.008 33.724L31.168 34.12V32.944H29.98V34.672L29.284 34.984V33.808H28.396C28.648 33.46 28.876 33.076 29.092 32.644H33.448V31.348H29.644C29.788 30.94 29.908 30.532 30.016 30.1L28.648 29.824C28.384 30.952 27.94 32.056 27.328 32.872V31.66H25.144L25.948 31.432C25.828 31 25.588 30.316 25.36 29.812L24.088 30.112C24.28 30.592 24.484 31.204 24.592 31.66H22.492V32.98H23.644C23.608 35.764 23.5 38.404 22.312 40.036C22.672 40.264 23.104 40.696 23.332 41.032C24.328 39.652 24.712 37.732 24.88 35.56H25.804C25.756 38.332 25.684 39.316 25.528 39.556C25.432 39.7 25.348 39.736 25.192 39.736C25.024 39.736 24.688 39.724 24.316 39.688C24.508 40.036 24.64 40.564 24.664 40.96C25.156 40.972 25.6 40.972 25.9 40.912C26.224 40.84 26.452 40.732 26.668 40.396C26.98 39.976 27.04 38.596 27.112 34.816V34.264H24.952C24.964 33.832 24.976 33.412 24.988 32.98H27.244C27.124 33.136 26.992 33.28 26.86 33.412C27.172 33.628 27.688 34.144 27.904 34.396L28.024 34.264V35.572L27.088 36.016L27.592 37.192L28.024 36.988V39.256C28.024 40.624 28.408 41.008 29.848 41.008H31.96C33.136 41.008 33.508 40.552 33.676 39.052C33.316 38.968 32.8 38.764 32.512 38.572C32.44 39.616 32.356 39.82 31.852 39.82H29.98Z" fill="#868F9F"/>
<rect x="0.5" y="0.5" width="43" height="43" stroke="#DADFE6"/>
</svg>
