<svg width="44" height="44" viewBox="0 0 44 44" fill="none" xmlns="http://www.w3.org/2000/svg">
<path d="M31 15.242V22H32V24H12V22H13V15.242C12.3844 14.8311 11.8797 14.2745 11.5308 13.6218C11.1819 12.969 10.9996 12.2402 11 11.5C11 10.673 11.224 9.876 11.633 9.197L14.345 4.5C14.4328 4.34798 14.559 4.22175 14.711 4.13398C14.863 4.04621 15.0355 4 15.211 4H28.79C28.9655 4 29.138 4.04621 29.29 4.13398C29.442 4.22175 29.5682 4.34798 29.656 4.5L32.358 9.182C32.9546 10.1729 33.1463 11.3555 32.8934 12.4841C32.6405 13.6127 31.9624 14.6005 31 15.242ZM29 15.972C28.3124 16.0491 27.6163 15.9665 26.9659 15.7307C26.3155 15.4948 25.7283 15.1119 25.25 14.612C24.8302 15.0511 24.3258 15.4005 23.7672 15.6393C23.2086 15.878 22.6075 16.001 22 16.001C21.3927 16.0013 20.7916 15.8786 20.233 15.6402C19.6745 15.4018 19.17 15.0527 18.75 14.614C18.2716 15.1138 17.6844 15.4964 17.034 15.7321C16.3835 15.9678 15.6875 16.0503 15 15.973V22H29V15.973V15.972ZM15.789 6L13.356 10.213C13.1196 10.7971 13.1125 11.449 13.3361 12.0382C13.5598 12.6273 13.9977 13.1103 14.5622 13.3904C15.1267 13.6705 15.7761 13.7271 16.3806 13.5488C16.985 13.3706 17.4998 12.9706 17.822 12.429C18.157 11.592 19.342 11.592 19.678 12.429C19.8633 12.8934 20.1836 13.2916 20.5975 13.5721C21.0115 13.8526 21.5 14.0025 22 14.0025C22.5 14.0025 22.9885 13.8526 23.4025 13.5721C23.8164 13.2916 24.1367 12.8934 24.322 12.429C24.657 11.592 25.842 11.592 26.178 12.429C26.3078 12.7484 26.5022 13.0376 26.7491 13.2783C26.996 13.519 27.2901 13.706 27.6127 13.8275C27.9354 13.9491 28.2797 14.0026 28.6241 13.9847C28.9684 13.9668 29.3053 13.8778 29.6136 13.7234C29.9219 13.569 30.1949 13.3525 30.4155 13.0875C30.6361 12.8225 30.7995 12.5148 30.8955 12.1836C30.9914 11.8524 31.0178 11.5049 30.973 11.1631C30.9281 10.8212 30.8131 10.4923 30.635 10.197L28.21 6H15.79H15.789Z" fill="#3A4763"/>
<path d="M18.1 33.292H13.9V31.672H18.1V33.292ZM19.552 30.304H12.52V34.648H19.552V30.304ZM14.008 37.012V39.076H12.22V37.012H14.008ZM10.864 41.044H12.22V40.444H14.008V40.984H15.436V35.644H10.864V41.044ZM17.824 39.076V37.012H19.732V39.076H17.824ZM16.456 35.644V41.044H17.824V40.444H19.732V40.996H21.172V35.644H16.456ZM24.22 34.204H26.74V32.992H26.068V29.848H24.88V32.992H24.22V30.148H22.996V34.612C22.996 36.28 22.9 38.932 22.24 40.66C22.576 40.744 23.152 40.936 23.44 41.068C23.872 39.844 24.076 38.248 24.16 36.76H25.132V41.056H26.356V35.56H24.208C24.22 35.224 24.22 34.9 24.22 34.612V34.204ZM28.432 34.612V33.808H29.38C29.32 34.072 29.248 34.336 29.14 34.612H28.432ZM28.432 31.996H29.488V32.62V32.776H28.432V31.996ZM31.756 32.776H30.784V32.656V31.996H31.756V32.776ZM31.756 34.612H30.52C30.604 34.336 30.664 34.072 30.7 33.808H31.756V34.612ZM33.58 37.576H31.54V35.992H30.172V37.576H28.384C29.164 37.036 29.692 36.388 30.064 35.728H33.124V30.88H30.364C30.496 30.592 30.64 30.28 30.772 29.98L29.092 29.848C29.056 30.16 28.984 30.52 28.9 30.88H27.136V35.728H28.504C28.144 36.172 27.664 36.592 27.016 36.964C27.244 37.12 27.592 37.36 27.82 37.576H26.68V38.812H30.172V41.044H31.54V38.812H33.568L33.58 37.576Z" fill="#868F9F"/>
<rect x="0.5" y="0.5" width="43" height="43" stroke="#DADFE6"/>
</svg>
