<?xml version="1.0" standalone="no"?><!DOCTYPE svg PUBLIC "-//W3C//DTD SVG 1.1//EN" "http://www.w3.org/Graphics/SVG/1.1/DTD/svg11.dtd"><svg t="1620615368650" class="icon" viewBox="0 0 1024 1024" version="1.1" xmlns="http://www.w3.org/2000/svg" p-id="1978" xmlns:xlink="http://www.w3.org/1999/xlink" width="200" height="200"><defs><style type="text/css"></style></defs><path d="M98 98.22h830v830H98z" fill="#959DA4" fill-opacity="0" p-id="1979"></path><path d="M201.75 98.22h622.5c57.3 0 103.75 46.45 103.75 103.75v622.5c0 57.3-46.45 103.75-103.75 103.75h-622.5C144.45 928.22 98 881.77 98 824.47v-622.5c0-57.3 46.45-103.75 103.75-103.75z m143.14 155.63c-50.42 0-91.27 41.34-91.27 92.32 0 50.9 40.85 92.24 91.27 92.24 50.33 0 91.19-41.34 91.19-92.24 0-50.98-40.85-92.32-91.19-92.32z m-77 518.09c0.24 0 517.29-0.08 518.02-0.16 0 0 0-119.39-0.08-214.71-0.08-91.27-0.08-167.86-0.16-167.78-30.96-67.6-82.35-7.94-92.24 4.7l-194.7 238.94-79.11-86.81c-12.24-9.16-29.34-7.21-39.23 4.54L245.92 723.47c-10.46 12.32-9 30.88 3.16 41.42 5.44 4.78 12.16 7.05 18.81 7.05z" fill="#959DA4" p-id="1980"></path></svg>