<svg width="44" height="44" viewBox="0 0 44 44" fill="none" xmlns="http://www.w3.org/2000/svg">
<path d="M21 13V7.828L19.172 9.657L17.757 8.243L22 4L26.243 8.243L24.828 9.657L23 7.828V13H28.172L26.343 11.172L27.757 9.757L32 14L27.757 18.243L26.343 16.828L28.172 15H23V20.172L24.828 18.343L26.243 19.757L22 24L17.757 19.757L19.172 18.343L21 20.172V15H15.828L17.657 16.828L16.243 18.243L12 14L16.243 9.757L17.657 11.172L15.828 13H21Z" fill="#3A4763"/>
<path d="M21.364 33.16V31.756H16.444L17.272 31.396C17.092 30.94 16.732 30.22 16.408 29.68L15.004 30.208C15.244 30.688 15.532 31.288 15.724 31.756H10.66V33.16H13.684C13.564 35.692 13.336 38.392 10.456 39.916C10.84 40.216 11.284 40.708 11.5 41.104C13.66 39.856 14.548 37.984 14.956 35.98H18.736C18.568 38.128 18.352 39.16 18.04 39.424C17.872 39.556 17.716 39.58 17.452 39.58C17.092 39.58 16.252 39.568 15.436 39.484C15.712 39.88 15.916 40.48 15.94 40.888C16.756 40.924 17.548 40.936 18.016 40.888C18.556 40.828 18.94 40.72 19.3 40.324C19.792 39.808 20.044 38.476 20.26 35.224C20.296 35.032 20.308 34.6 20.308 34.6H15.16C15.22 34.12 15.244 33.64 15.28 33.16H21.364ZM29.044 35.668V37.252H26.968V35.668H29.044ZM30.352 38.5V34.42H25.672V39.388H26.968V38.5H30.352ZM32.968 31.852H28C28.264 31.336 28.54 30.748 28.792 30.172L27.004 29.848C26.872 30.46 26.632 31.216 26.38 31.852H23.056V41.044H24.484V33.244H31.54V39.364C31.54 39.568 31.456 39.64 31.24 39.64C31 39.652 30.196 39.652 29.5 39.616C29.704 40 29.92 40.648 29.98 41.056C31.048 41.056 31.792 41.032 32.296 40.804C32.8 40.564 32.968 40.168 32.968 39.388V31.852Z" fill="#868F9F"/>
<rect x="0.5" y="0.5" width="43" height="43" stroke="#DADFE6"/>
</svg>
